<svg width="24" height="24" viewBox="0 0 30 30" fill="none" xmlns="http://www.w3.org/2000/svg" aria-label="Representation icon for a video post.">
    <path fill-rule="evenodd" clip-rule="evenodd" d="M5.70533 6C4.21122 6 3 7.21122 3 8.70533V21.2947C3 22.7888 4.21122 24 5.70533 24H18.2947C19.7888 24 21 22.7888 21 21.2947V8.70533C21 7.21122 19.7888 6 18.2947 6H5.70533ZM15.6857 14.9841C15.6857 16.9913 14.0466 18.6384 12 18.6384C9.95334 18.6384 8.31429 16.9913 8.31429 14.9841C8.31429 12.9769 9.95334 11.3297 12 11.3297C14.0466 11.3297 15.6857 12.9769 15.6857 14.9841ZM17.8877 14.9841C17.8877 18.2185 15.2517 20.8405 12 20.8405C8.74829 20.8405 6.11228 18.2185 6.11228 14.9841C6.11228 11.7497 8.74829 9.12769 12 9.12769C15.2517 9.12769 17.8877 11.7497 17.8877 14.9841Z" fill="white"></path>
    <path d="M23 10.8706C23 10.4291 23.2424 10.0233 23.6311 9.81403L25.8207 8.635C26.3537 8.348 27 8.73403 27 9.33937V20.9561C27 21.4825 26.5003 21.8655 25.992 21.7286L23.888 21.1622C23.3641 21.0211 23 20.546 23 20.0034V10.8706Z" fill="white"></path>
</svg>